<?xml version="1.0" encoding="UTF-8" standalone="no"?>
<svg
   xmlns:dc="http://purl.org/dc/elements/1.1/"
   xmlns:cc="http://creativecommons.org/ns#"
   xmlns:rdf="http://www.w3.org/1999/02/22-rdf-syntax-ns#"
   xmlns:svg="http://www.w3.org/2000/svg"
   xmlns="http://www.w3.org/2000/svg"
   viewBox="0 0 1200 675"
   height="675"
   width="1200"
   xml:space="preserve"
   version="1.1"
   id="svg2"><metadata
     id="metadata8"><rdf:RDF><cc:Work
         rdf:about=""><dc:format>image/svg+xml</dc:format><dc:type
           rdf:resource="http://purl.org/dc/dcmitype/StillImage" /></cc:Work></rdf:RDF></metadata><defs
     id="defs6"><clipPath
       id="clipPath16"
       clipPathUnits="userSpaceOnUse"><path
         style="clip-rule:evenodd"
         id="path18"
         d="m 0,1.2207e-4 960,0 0,539.99999793 -960,0 L 0,1.2207e-4 Z" /></clipPath><clipPath
       id="clipPath38"
       clipPathUnits="userSpaceOnUse"><path
         style="clip-rule:evenodd"
         id="path40"
         d="M 1.4305e-5,0 960.00001,0 l 0,540 -959.999995695,0 0,-540 z" /></clipPath><clipPath
       id="clipPath50"
       clipPathUnits="userSpaceOnUse"><path
         style="clip-rule:evenodd"
         id="path52"
         d="M 1.4305e-5,0 960.00001,0 l 0,540 -959.999995695,0 0,-540 z" /></clipPath><clipPath
       id="clipPath66"
       clipPathUnits="userSpaceOnUse"><path
         style="clip-rule:evenodd"
         id="path68"
         d="M 1.4305e-5,0 960.00001,0 l 0,540 -959.999995695,0 0,-540 z" /></clipPath><clipPath
       id="clipPath78"
       clipPathUnits="userSpaceOnUse"><path
         style="clip-rule:evenodd"
         id="path80"
         d="M 1.4305e-5,0 960.00001,0 l 0,540 -959.999995695,0 0,-540 z" /></clipPath><clipPath
       id="clipPath94"
       clipPathUnits="userSpaceOnUse"><path
         style="clip-rule:evenodd"
         id="path96"
         d="M 1.4305e-5,0 960.00001,0 l 0,540 -959.999995695,0 0,-540 z" /></clipPath><clipPath
       id="clipPath106"
       clipPathUnits="userSpaceOnUse"><path
         style="clip-rule:evenodd"
         id="path108"
         d="M 1.4305e-5,0 960.00001,0 l 0,540 -959.999995695,0 0,-540 z" /></clipPath><clipPath
       id="clipPath118"
       clipPathUnits="userSpaceOnUse"><path
         style="clip-rule:evenodd"
         id="path120"
         d="M 1.4305e-5,0 960.00001,0 l 0,540 -959.999995695,0 0,-540 z" /></clipPath><clipPath
       id="clipPath130"
       clipPathUnits="userSpaceOnUse"><path
         style="clip-rule:evenodd"
         id="path132"
         d="M 1.4305e-5,0 960.00001,0 l 0,540 -959.999995695,0 0,-540 z" /></clipPath><clipPath
       id="clipPath146"
       clipPathUnits="userSpaceOnUse"><path
         style="clip-rule:evenodd"
         id="path148"
         d="M 1.4305e-5,0 960.00001,0 l 0,540 -959.999995695,0 0,-540 z" /></clipPath><clipPath
       id="clipPath158"
       clipPathUnits="userSpaceOnUse"><path
         style="clip-rule:evenodd"
         id="path160"
         d="M 1.4305e-5,0 960.00001,0 l 0,540 -959.999995695,0 0,-540 z" /></clipPath><clipPath
       id="clipPath170"
       clipPathUnits="userSpaceOnUse"><path
         style="clip-rule:evenodd"
         id="path172"
         d="M 1.4305e-5,0 960.00001,0 l 0,540 -959.999995695,0 0,-540 z" /></clipPath><clipPath
       id="clipPath182"
       clipPathUnits="userSpaceOnUse"><path
         style="clip-rule:evenodd"
         id="path184"
         d="M 1.4305e-5,0 960.00001,0 l 0,540 -959.999995695,0 0,-540 z" /></clipPath><clipPath
       id="clipPath194"
       clipPathUnits="userSpaceOnUse"><path
         style="clip-rule:evenodd"
         id="path196"
         d="M 1.4305e-5,0 960.00001,0 l 0,540 -959.999995695,0 0,-540 z" /></clipPath><clipPath
       id="clipPath206"
       clipPathUnits="userSpaceOnUse"><path
         style="clip-rule:evenodd"
         id="path208"
         d="M 1.4305e-5,0 960.00001,0 l 0,540 -959.999995695,0 0,-540 z" /></clipPath><clipPath
       id="clipPath224"
       clipPathUnits="userSpaceOnUse"><path
         style="clip-rule:evenodd"
         id="path226"
         d="M 1.4305e-5,0 960.00001,0 l 0,540 -959.999995695,0 0,-540 z" /></clipPath><clipPath
       id="clipPath236"
       clipPathUnits="userSpaceOnUse"><path
         style="clip-rule:evenodd"
         id="path238"
         d="M 1.4305e-5,0 960.00001,0 l 0,540 -959.999995695,0 0,-540 z" /></clipPath><clipPath
       id="clipPath248"
       clipPathUnits="userSpaceOnUse"><path
         style="clip-rule:evenodd"
         id="path250"
         d="M 1.4305e-5,0 960.00001,0 l 0,540 -959.999995695,0 0,-540 z" /></clipPath><clipPath
       id="clipPath260"
       clipPathUnits="userSpaceOnUse"><path
         style="clip-rule:evenodd"
         id="path262"
         d="M 1.4305e-5,0 960.00001,0 l 0,540 -959.999995695,0 0,-540 z" /></clipPath><clipPath
       id="clipPath272"
       clipPathUnits="userSpaceOnUse"><path
         style="clip-rule:evenodd"
         id="path274"
         d="M 1.4305e-5,0 960.00001,0 l 0,540 -959.999995695,0 0,-540 z" /></clipPath><clipPath
       id="clipPath290"
       clipPathUnits="userSpaceOnUse"><path
         style="clip-rule:evenodd"
         id="path292"
         d="M 1.4305e-5,0 960.00001,0 l 0,540 -959.999995695,0 0,-540 z" /></clipPath><clipPath
       id="clipPath302"
       clipPathUnits="userSpaceOnUse"><path
         style="clip-rule:evenodd"
         id="path304"
         d="M 1.4305e-5,0 960.00001,0 l 0,540 -959.999995695,0 0,-540 z" /></clipPath><clipPath
       id="clipPath314"
       clipPathUnits="userSpaceOnUse"><path
         style="clip-rule:evenodd"
         id="path316"
         d="M 1.4305e-5,0 960.00001,0 l 0,540 -959.999995695,0 0,-540 z" /></clipPath><clipPath
       id="clipPath326"
       clipPathUnits="userSpaceOnUse"><path
         style="clip-rule:evenodd"
         id="path328"
         d="M 1.4305e-5,0 960.00001,0 l 0,540 -959.999995695,0 0,-540 z" /></clipPath></defs><g
     transform="matrix(1.25,0,0,-1.25,0,675)"
     id="g10"><g
       id="g12"><g
         clip-path="url(#clipPath16)"
         id="g14"><path
           id="path20"
           style="fill:#ffffff;fill-opacity:1;fill-rule:evenodd;stroke:none"
           d="m 0,6.1035e-5 960,0 0,539.999998965 -960,0 L 0,6.1035e-5 Z" /></g></g><path
       id="path22"
       style="fill:#e7b9b1;fill-opacity:1;fill-rule:evenodd;stroke:none"
       d="m 59.28,22.44 393.48,0 0,466.68 -393.48,0 0,-466.68 z" /><path
       id="path24"
       style="fill:none;stroke:#000000;stroke-width:0.95999998;stroke-linecap:butt;stroke-linejoin:miter;stroke-miterlimit:10;stroke-dasharray:none;stroke-opacity:1"
       d="m 59.28,22.44 393.48,0 0,466.68 -393.48,0 0,-466.68 z" /><path
       id="path26"
       style="fill:#e2f0d9;fill-opacity:1;fill-rule:evenodd;stroke:none"
       d="m 74.28,157.92 362.52,0 0,322.56 -362.52,0 0,-322.56 z" /><path
       id="path28"
       style="fill:none;stroke:#000000;stroke-width:0.95999998;stroke-linecap:butt;stroke-linejoin:miter;stroke-miterlimit:10;stroke-dasharray:none;stroke-opacity:1"
       d="m 74.28,157.92 362.52,0 0,322.56 -362.52,0 0,-322.56 z" /><path
       id="path30"
       style="fill:#ffffff;fill-opacity:1;fill-rule:evenodd;stroke:none"
       d="m 109.32,428.58 c 0,22.43 24.5,40.62 54.72,40.62 30.22,0 54.72,-18.19 54.72,-40.62 0,-22.43 -24.5,-40.62 -54.72,-40.62 -30.22,0 -54.72,18.19 -54.72,40.62 z" /><path
       id="path32"
       style="fill:none;stroke:#000000;stroke-width:0.95999998;stroke-linecap:butt;stroke-linejoin:miter;stroke-miterlimit:10;stroke-dasharray:none;stroke-opacity:1"
       d="m 109.32,428.58 c 0,22.43 24.5,40.62 54.72,40.62 30.22,0 54.72,-18.19 54.72,-40.62 0,-22.43 -24.5,-40.62 -54.72,-40.62 -30.22,0 -54.72,18.19 -54.72,40.62 z" /><g
       id="g34"><g
         clip-path="url(#clipPath38)"
         id="g36"><text
           id="text42"
           style="font-variant:normal;font-weight:normal;font-size:24px;font-family:Helvetica;-inkscape-font-specification:Helvetica;writing-mode:lr-tb;fill:#000000;fill-opacity:1;fill-rule:nonzero;stroke:none"
           transform="matrix(1,0,0,-1,132.65,438.74)"><tspan
             id="tspan44"
             y="0"
             x="0 16.007999 22.68 30.672001 36 49.344002">String</tspan></text>
</g></g><g
       id="g46"><g
         clip-path="url(#clipPath50)"
         id="g48"><text
           id="text54"
           style="font-variant:normal;font-weight:normal;font-size:32.06399918px;font-family:Helvetica;-inkscape-font-specification:Helvetica;writing-mode:lr-tb;fill:#000000;fill-opacity:1;fill-rule:nonzero;stroke:none"
           transform="matrix(1,0,0,-1,135.53,402.26)"><tspan
             id="tspan56"
             y="0"
             x="0 10.677312 28.504896 46.204224">“aa”</tspan></text>
</g></g><path
       id="path58"
       style="fill:#ffffff;fill-opacity:1;fill-rule:evenodd;stroke:none"
       d="m 153.24,337.2 c 0,25.32 24.85,45.84 55.5,45.84 30.65,0 55.5,-20.52 55.5,-45.84 0,-25.32 -24.85,-45.84 -55.5,-45.84 -30.65,0 -55.5,20.52 -55.5,45.84 z" /><path
       id="path60"
       style="fill:none;stroke:#000000;stroke-width:0.95999998;stroke-linecap:butt;stroke-linejoin:miter;stroke-miterlimit:10;stroke-dasharray:none;stroke-opacity:1"
       d="m 153.24,337.2 c 0,25.32 24.85,45.84 55.5,45.84 30.65,0 55.5,-20.52 55.5,-45.84 0,-25.32 -24.85,-45.84 -55.5,-45.84 -30.65,0 -55.5,20.52 -55.5,45.84 z" /><g
       id="g62"><g
         clip-path="url(#clipPath66)"
         id="g64"><text
           id="text70"
           style="font-variant:normal;font-weight:normal;font-size:24px;font-family:Helvetica;-inkscape-font-specification:Helvetica;writing-mode:lr-tb;fill:#000000;fill-opacity:1;fill-rule:nonzero;stroke:none"
           transform="matrix(1,0,0,-1,177.36,347.35)"><tspan
             id="tspan72"
             y="0"
             x="0 16.007999 22.68 30.672001 36 49.344002">String</tspan></text>
</g></g><g
       id="g74"><g
         clip-path="url(#clipPath78)"
         id="g76"><text
           id="text82"
           style="font-variant:normal;font-weight:normal;font-size:32.04000092px;font-family:Helvetica;-inkscape-font-specification:Helvetica;writing-mode:lr-tb;fill:#000000;fill-opacity:1;fill-rule:nonzero;stroke:none"
           transform="matrix(1,0,0,-1,189.12,310.87)"><tspan
             id="tspan84"
             y="0"
             x="0 10.66932 28.483561">“a”</tspan></text>
</g></g><path
       id="path86"
       style="fill:#ffffff;fill-opacity:1;fill-rule:evenodd;stroke:none"
       d="m 173.64,94.62 c 0,25.28 30.38,45.78 67.86,45.78 37.48,0 67.86,-20.5 67.86,-45.78 0,-25.284 -30.38,-45.78 -67.86,-45.78 -37.48,0 -67.86,20.496 -67.86,45.78 z" /><path
       id="path88"
       style="fill:none;stroke:#000000;stroke-width:0.95999998;stroke-linecap:butt;stroke-linejoin:miter;stroke-miterlimit:10;stroke-dasharray:none;stroke-opacity:1"
       d="m 173.64,94.62 c 0,25.28 30.38,45.78 67.86,45.78 37.48,0 67.86,-20.5 67.86,-45.78 0,-25.284 -30.38,-45.78 -67.86,-45.78 -37.48,0 -67.86,20.496 -67.86,45.78 z" /><g
       id="g90"><g
         clip-path="url(#clipPath94)"
         id="g92"><text
           id="text98"
           style="font-variant:normal;font-weight:normal;font-size:24px;font-family:Helvetica;-inkscape-font-specification:Helvetica;writing-mode:lr-tb;fill:#000000;fill-opacity:1;fill-rule:nonzero;stroke:none"
           transform="matrix(1,0,0,-1,210.14,104.71)"><tspan
             id="tspan100"
             y="0"
             x="0 16.007999 22.68 30.672001 36 49.344002">String</tspan></text>
</g></g><g
       id="g102"><g
         clip-path="url(#clipPath106)"
         id="g104"><text
           id="text110"
           style="font-variant:normal;font-weight:normal;font-size:32.04000092px;font-family:Helvetica;-inkscape-font-specification:Helvetica;writing-mode:lr-tb;fill:#000000;fill-opacity:1;fill-rule:nonzero;stroke:none"
           transform="matrix(1,0,0,-1,204.98,68.232)"><tspan
             id="tspan112"
             y="0"
             x="0">“</tspan></text>
</g></g><g
       id="g114"><g
         clip-path="url(#clipPath118)"
         id="g116"><text
           id="text122"
           style="font-variant:normal;font-weight:normal;font-size:32.04000092px;font-family:Helvetica;-inkscape-font-specification:Helvetica;writing-mode:lr-tb;fill:#000000;fill-opacity:1;fill-rule:nonzero;stroke:none"
           transform="matrix(1,0,0,-1,215.66,68.232)"><tspan
             id="tspan124"
             y="0"
             x="0 17.81424 33.83424">acb</tspan></text>
</g></g><g
       id="g126"><g
         clip-path="url(#clipPath130)"
         id="g128"><text
           id="text134"
           style="font-variant:normal;font-weight:normal;font-size:32.04000092px;font-family:Helvetica;-inkscape-font-specification:Helvetica;writing-mode:lr-tb;fill:#000000;fill-opacity:1;fill-rule:nonzero;stroke:none"
           transform="matrix(1,0,0,-1,267.26,68.232)"><tspan
             id="tspan136"
             y="0"
             x="0">”</tspan></text>
</g></g><path
       id="path138"
       style="fill:#ffffff;fill-opacity:1;fill-rule:evenodd;stroke:none"
       d="m 287.4,279.54 c 0,25.28 27.37,45.78 61.14,45.78 33.77,0 61.14,-20.5 61.14,-45.78 0,-25.28 -27.37,-45.78 -61.14,-45.78 -33.77,0 -61.14,20.5 -61.14,45.78 z" /><path
       id="path140"
       style="fill:none;stroke:#000000;stroke-width:0.95999998;stroke-linecap:butt;stroke-linejoin:miter;stroke-miterlimit:10;stroke-dasharray:none;stroke-opacity:1"
       d="m 287.4,279.54 c 0,25.28 27.37,45.78 61.14,45.78 33.77,0 61.14,-20.5 61.14,-45.78 0,-25.28 -27.37,-45.78 -61.14,-45.78 -33.77,0 -61.14,20.5 -61.14,45.78 z" /><g
       id="g142"><g
         clip-path="url(#clipPath146)"
         id="g144"><text
           id="text150"
           style="font-variant:normal;font-weight:normal;font-size:24px;font-family:Helvetica;-inkscape-font-specification:Helvetica;writing-mode:lr-tb;fill:#000000;fill-opacity:1;fill-rule:nonzero;stroke:none"
           transform="matrix(1,0,0,-1,317.26,287.28)"><tspan
             id="tspan152"
             y="0"
             x="0 16.007999 22.68 30.672001 36 49.344002">String</tspan></text>
</g></g><g
       id="g154"><g
         clip-path="url(#clipPath158)"
         id="g156"><text
           id="text162"
           style="font-variant:normal;font-weight:normal;font-size:27.95999908px;font-family:Helvetica;-inkscape-font-specification:Helvetica;writing-mode:lr-tb;fill:#000000;fill-opacity:1;fill-rule:nonzero;stroke:none"
           transform="matrix(1,0,0,-1,324.34,254.64)"><tspan
             id="tspan164"
             y="0"
             x="0 9.3106804 24.940319 38.920319">“ac”</tspan></text>
</g></g><g
       id="g166"><g
         clip-path="url(#clipPath170)"
         id="g168"><text
           id="text174"
           style="font-variant:normal;font-weight:normal;font-size:44.06399918px;font-family:Helvetica;-inkscape-font-specification:Helvetica;writing-mode:lr-tb;fill:#000000;fill-opacity:1;fill-rule:nonzero;stroke:none"
           transform="matrix(1,0,0,-1,655.3,202.3)"><tspan
             id="tspan176"
             y="0"
             x="0">{</tspan></text>
</g></g><g
       id="g178"><g
         clip-path="url(#clipPath182)"
         id="g180"><text
           id="text186"
           style="font-variant:normal;font-weight:normal;font-size:44.06399918px;font-family:Helvetica;-inkscape-font-specification:Helvetica;writing-mode:lr-tb;fill:#000000;fill-opacity:1;fill-rule:nonzero;stroke:none"
           transform="matrix(1,0,0,-1,670.06,202.3)"><tspan
             id="tspan188"
             y="0"
             x="0 24.479984 36.710175 61.190159 73.420349">a,b,c</tspan></text>
</g></g><g
       id="g190"><g
         clip-path="url(#clipPath194)"
         id="g192"><text
           id="text198"
           style="font-variant:normal;font-weight:normal;font-size:44.06399918px;font-family:Helvetica;-inkscape-font-specification:Helvetica;writing-mode:lr-tb;fill:#000000;fill-opacity:1;fill-rule:nonzero;stroke:none"
           transform="matrix(1,0,0,-1,765.58,202.3)"><tspan
             id="tspan200"
             y="0"
             x="0">}</tspan></text>
</g></g><g
       id="g202"><g
         clip-path="url(#clipPath206)"
         id="g204"><text
           id="text210"
           style="font-variant:normal;font-weight:normal;font-size:44.04000092px;font-family:Helvetica;-inkscape-font-specification:Helvetica;writing-mode:lr-tb;fill:#000000;fill-opacity:1;fill-rule:nonzero;stroke:none"
           transform="matrix(1,0,0,-1,682.68,380.9)"><tspan
             id="tspan212"
             y="0"
             x="0 14.70936 39.195599">{a}</tspan></text>
</g></g><path
       id="path214"
       style="fill:#000000;fill-opacity:1;fill-rule:nonzero;stroke:none"
       d="m 300.65,205.12 322.93,5.81 -0.11,6 -322.92,-5.81 0.1,-6 z m 320.04,-0.24 17.83,9.32 -18.16,8.67 0.33,-17.99 z" /><path
       id="path216"
       style="fill:#000000;fill-opacity:1;fill-rule:nonzero;stroke:none"
       d="m 278.14,344.22 382.47,27.9 -0.44,5.98 -382.47,-27.9 0.44,-5.98 z m 379.92,21.69 17.29,10.29 -18.6,7.67 1.31,-17.96 z" /><path
       id="path218"
       style="fill:#000000;fill-opacity:1;fill-rule:nonzero;stroke:none"
       d="m 418.86,281.09 216.48,21.86 -0.6,5.97 -216.48,-21.86 0.6,-5.97 z m 214.1,15.59 17.01,10.76 -18.82,7.15 1.81,-17.91 z" /><g
       id="g220"><g
         clip-path="url(#clipPath224)"
         id="g222"><text
           id="text228"
           style="font-variant:normal;font-weight:normal;font-size:44.04000092px;font-family:Helvetica;-inkscape-font-specification:Helvetica;writing-mode:lr-tb;fill:#000000;fill-opacity:1;fill-rule:nonzero;stroke:none"
           transform="matrix(1,0,0,-1,669,290.66)"><tspan
             id="tspan230"
             y="0"
             x="0">{</tspan></text>
</g></g><g
       id="g232"><g
         clip-path="url(#clipPath236)"
         id="g234"><text
           id="text240"
           style="font-variant:normal;font-weight:normal;font-size:44.04000092px;font-family:Helvetica;-inkscape-font-specification:Helvetica;writing-mode:lr-tb;fill:#000000;fill-opacity:1;fill-rule:nonzero;stroke:none"
           transform="matrix(1,0,0,-1,683.76,290.66)"><tspan
             id="tspan242"
             y="0"
             x="0 24.48 36.716881">a,c</tspan></text>
</g></g><g
       id="g244"><g
         clip-path="url(#clipPath248)"
         id="g246"><text
           id="text252"
           style="font-variant:normal;font-weight:normal;font-size:44.04000092px;font-family:Helvetica;-inkscape-font-specification:Helvetica;writing-mode:lr-tb;fill:#000000;fill-opacity:1;fill-rule:nonzero;stroke:none"
           transform="matrix(1,0,0,-1,742.58,290.66)"><tspan
             id="tspan254"
             y="0"
             x="0">}</tspan></text>
</g></g><g
       id="g256"><g
         clip-path="url(#clipPath260)"
         id="g258"><text
           id="text264"
           style="font-variant:normal;font-weight:normal;font-size:44.04000092px;font-family:Helvetica;-inkscape-font-specification:Helvetica;writing-mode:lr-tb;fill:#000000;fill-opacity:1;fill-rule:nonzero;stroke:none"
           transform="matrix(1,0,0,-1,225.43,503.28)"><tspan
             id="tspan266"
             y="0"
             x="0">R</tspan></text>
</g></g><g
       id="g268"><g
         clip-path="url(#clipPath272)"
         id="g270"><text
           id="text276"
           style="font-variant:normal;font-weight:normal;font-size:44.06399918px;font-family:Helvetica;-inkscape-font-specification:Helvetica;writing-mode:lr-tb;fill:#000000;fill-opacity:1;fill-rule:nonzero;stroke:none"
           transform="matrix(1,0,0,-1,711.05,503.45)"><tspan
             id="tspan278"
             y="0"
             x="0">A</tspan></text>
</g></g><path
       id="path280"
       style="fill:none;stroke:#000000;stroke-width:0.95999998;stroke-linecap:butt;stroke-linejoin:miter;stroke-miterlimit:10;stroke-dasharray:none;stroke-opacity:1"
       d="m 534.36,22.56 393.48,0 0,466.8 -393.48,0 0,-466.8 z" /><path
       id="path282"
       style="fill:#ffffff;fill-opacity:1;fill-rule:evenodd;stroke:none"
       d="m 131.16,208.14 c 0,22.43 34.98,40.62 78.12,40.62 43.14,0 78.12,-18.19 78.12,-40.62 0,-22.43 -34.98,-40.62 -78.12,-40.62 -43.14,0 -78.12,18.19 -78.12,40.62 z" /><path
       id="path284"
       style="fill:none;stroke:#000000;stroke-width:0.95999998;stroke-linecap:butt;stroke-linejoin:miter;stroke-miterlimit:10;stroke-dasharray:none;stroke-opacity:1"
       d="m 131.16,208.14 c 0,22.43 34.98,40.62 78.12,40.62 43.14,0 78.12,-18.19 78.12,-40.62 0,-22.43 -34.98,-40.62 -78.12,-40.62 -43.14,0 -78.12,18.19 -78.12,40.62 z" /><g
       id="g286"><g
         clip-path="url(#clipPath290)"
         id="g288"><text
           id="text294"
           style="font-variant:normal;font-weight:normal;font-size:24px;font-family:Helvetica;-inkscape-font-specification:Helvetica;writing-mode:lr-tb;fill:#000000;fill-opacity:1;fill-rule:nonzero;stroke:none"
           transform="matrix(1,0,0,-1,178.03,218.28)"><tspan
             id="tspan296"
             y="0"
             x="0 16.007999 22.68 30.672001 36 49.344002">String</tspan></text>
</g></g><g
       id="g298"><g
         clip-path="url(#clipPath302)"
         id="g300"><text
           id="text306"
           style="font-variant:normal;font-weight:normal;font-size:32.04000092px;font-family:Helvetica;-inkscape-font-specification:Helvetica;writing-mode:lr-tb;fill:#000000;fill-opacity:1;fill-rule:nonzero;stroke:none"
           transform="matrix(1,0,0,-1,163.99,181.8)"><tspan
             id="tspan308"
             y="0"
             x="0">“</tspan></text>
</g></g><g
       id="g310"><g
         clip-path="url(#clipPath314)"
         id="g312"><text
           id="text318"
           style="font-variant:normal;font-weight:normal;font-size:32.04000092px;font-family:Helvetica;-inkscape-font-specification:Helvetica;writing-mode:lr-tb;fill:#000000;fill-opacity:1;fill-rule:nonzero;stroke:none"
           transform="matrix(1,0,0,-1,174.67,181.8)"><tspan
             id="tspan320"
             y="0"
             x="0 17.76004 35.520081 53.280121">abbc</tspan></text>
</g></g><g
       id="g322"><g
         clip-path="url(#clipPath326)"
         id="g324"><text
           id="text330"
           style="font-variant:normal;font-weight:normal;font-size:32.04000092px;font-family:Helvetica;-inkscape-font-specification:Helvetica;writing-mode:lr-tb;fill:#000000;fill-opacity:1;fill-rule:nonzero;stroke:none"
           transform="matrix(1,0,0,-1,244.03,181.8)"><tspan
             id="tspan332"
             y="0"
             x="0">”</tspan></text>
</g></g><path
       id="path334"
       style="fill:#000000;fill-opacity:1;fill-rule:nonzero;stroke:none"
       d="m 231.05,434.52 429.58,-24.87 -0.34,-5.99 -429.58,24.87 0.34,5.99 z m 426.93,-18.71 17.45,-10.02 -18.49,-7.95 1.04,17.97 z" /></g></svg>