<?xml version="1.0" encoding="UTF-8" standalone="no"?>
<svg
   xmlns:dc="http://purl.org/dc/elements/1.1/"
   xmlns:cc="http://creativecommons.org/ns#"
   xmlns:rdf="http://www.w3.org/1999/02/22-rdf-syntax-ns#"
   xmlns:svg="http://www.w3.org/2000/svg"
   xmlns="http://www.w3.org/2000/svg"
   viewBox="0 0 1200 675"
   height="675"
   width="1200"
   xml:space="preserve"
   version="1.1"
   id="svg2"><metadata
     id="metadata8"><rdf:RDF><cc:Work
         rdf:about=""><dc:format>image/svg+xml</dc:format><dc:type
           rdf:resource="http://purl.org/dc/dcmitype/StillImage" /></cc:Work></rdf:RDF></metadata><defs
     id="defs6"><clipPath
       id="clipPath16"
       clipPathUnits="userSpaceOnUse"><path
         style="clip-rule:evenodd"
         id="path18"
         d="m 0,1.2207e-4 960,0 0,539.99999793 -960,0 L 0,1.2207e-4 Z" /></clipPath><clipPath
       id="clipPath38"
       clipPathUnits="userSpaceOnUse"><path
         style="clip-rule:evenodd"
         id="path40"
         d="M 1.4305e-5,0 960.00001,0 l 0,540 -959.999995695,0 0,-540 z" /></clipPath><clipPath
       id="clipPath50"
       clipPathUnits="userSpaceOnUse"><path
         style="clip-rule:evenodd"
         id="path52"
         d="M 1.4305e-5,0 960.00001,0 l 0,540 -959.999995695,0 0,-540 z" /></clipPath><clipPath
       id="clipPath66"
       clipPathUnits="userSpaceOnUse"><path
         style="clip-rule:evenodd"
         id="path68"
         d="M 1.4305e-5,0 960.00001,0 l 0,540 -959.999995695,0 0,-540 z" /></clipPath><clipPath
       id="clipPath78"
       clipPathUnits="userSpaceOnUse"><path
         style="clip-rule:evenodd"
         id="path80"
         d="M 1.4305e-5,0 960.00001,0 l 0,540 -959.999995695,0 0,-540 z" /></clipPath><clipPath
       id="clipPath94"
       clipPathUnits="userSpaceOnUse"><path
         style="clip-rule:evenodd"
         id="path96"
         d="M 1.4305e-5,0 960.00001,0 l 0,540 -959.999995695,0 0,-540 z" /></clipPath><clipPath
       id="clipPath106"
       clipPathUnits="userSpaceOnUse"><path
         style="clip-rule:evenodd"
         id="path108"
         d="M 1.4305e-5,0 960.00001,0 l 0,540 -959.999995695,0 0,-540 z" /></clipPath><clipPath
       id="clipPath118"
       clipPathUnits="userSpaceOnUse"><path
         style="clip-rule:evenodd"
         id="path120"
         d="M 1.4305e-5,0 960.00001,0 l 0,540 -959.999995695,0 0,-540 z" /></clipPath><clipPath
       id="clipPath130"
       clipPathUnits="userSpaceOnUse"><path
         style="clip-rule:evenodd"
         id="path132"
         d="M 1.4305e-5,0 960.00001,0 l 0,540 -959.999995695,0 0,-540 z" /></clipPath><clipPath
       id="clipPath146"
       clipPathUnits="userSpaceOnUse"><path
         style="clip-rule:evenodd"
         id="path148"
         d="M 1.4305e-5,0 960.00001,0 l 0,540 -959.999995695,0 0,-540 z" /></clipPath><clipPath
       id="clipPath158"
       clipPathUnits="userSpaceOnUse"><path
         style="clip-rule:evenodd"
         id="path160"
         d="M 1.4305e-5,0 960.00001,0 l 0,540 -959.999995695,0 0,-540 z" /></clipPath><clipPath
       id="clipPath170"
       clipPathUnits="userSpaceOnUse"><path
         style="clip-rule:evenodd"
         id="path172"
         d="M 1.4305e-5,0 960.00001,0 l 0,540 -959.999995695,0 0,-540 z" /></clipPath><clipPath
       id="clipPath182"
       clipPathUnits="userSpaceOnUse"><path
         style="clip-rule:evenodd"
         id="path184"
         d="M 1.4305e-5,0 960.00001,0 l 0,540 -959.999995695,0 0,-540 z" /></clipPath><clipPath
       id="clipPath194"
       clipPathUnits="userSpaceOnUse"><path
         style="clip-rule:evenodd"
         id="path196"
         d="M 1.4305e-5,0 960.00001,0 l 0,540 -959.999995695,0 0,-540 z" /></clipPath><clipPath
       id="clipPath206"
       clipPathUnits="userSpaceOnUse"><path
         style="clip-rule:evenodd"
         id="path208"
         d="M 1.4305e-5,0 960.00001,0 l 0,540 -959.999995695,0 0,-540 z" /></clipPath><clipPath
       id="clipPath224"
       clipPathUnits="userSpaceOnUse"><path
         style="clip-rule:evenodd"
         id="path226"
         d="M 1.4305e-5,0 960.00001,0 l 0,540 -959.999995695,0 0,-540 z" /></clipPath><clipPath
       id="clipPath236"
       clipPathUnits="userSpaceOnUse"><path
         style="clip-rule:evenodd"
         id="path238"
         d="M 1.4305e-5,0 960.00001,0 l 0,540 -959.999995695,0 0,-540 z" /></clipPath><clipPath
       id="clipPath248"
       clipPathUnits="userSpaceOnUse"><path
         style="clip-rule:evenodd"
         id="path250"
         d="M 1.4305e-5,0 960.00001,0 l 0,540 -959.999995695,0 0,-540 z" /></clipPath><clipPath
       id="clipPath260"
       clipPathUnits="userSpaceOnUse"><path
         style="clip-rule:evenodd"
         id="path262"
         d="M 1.4305e-5,0 960.00001,0 l 0,540 -959.999995695,0 0,-540 z" /></clipPath><clipPath
       id="clipPath272"
       clipPathUnits="userSpaceOnUse"><path
         style="clip-rule:evenodd"
         id="path274"
         d="M 1.4305e-5,0 960.00001,0 l 0,540 -959.999995695,0 0,-540 z" /></clipPath><clipPath
       id="clipPath290"
       clipPathUnits="userSpaceOnUse"><path
         style="clip-rule:evenodd"
         id="path292"
         d="M 1.4305e-5,0 960.00001,0 l 0,540 -959.999995695,0 0,-540 z" /></clipPath><clipPath
       id="clipPath302"
       clipPathUnits="userSpaceOnUse"><path
         style="clip-rule:evenodd"
         id="path304"
         d="M 1.4305e-5,0 960.00001,0 l 0,540 -959.999995695,0 0,-540 z" /></clipPath><clipPath
       id="clipPath314"
       clipPathUnits="userSpaceOnUse"><path
         style="clip-rule:evenodd"
         id="path316"
         d="M 1.4305e-5,0 960.00001,0 l 0,540 -959.999995695,0 0,-540 z" /></clipPath><clipPath
       id="clipPath326"
       clipPathUnits="userSpaceOnUse"><path
         style="clip-rule:evenodd"
         id="path328"
         d="M 1.4305e-5,0 960.00001,0 l 0,540 -959.999995695,0 0,-540 z" /></clipPath></defs><g
     transform="matrix(1.25,0,0,-1.25,0,675)"
     id="g10"><g
       id="g12"><g
         clip-path="url(#clipPath16)"
         id="g14"><path
           id="path20"
           style="fill:#ffffff;fill-opacity:1;fill-rule:evenodd;stroke:none"
           d="m 0,6.1035e-5 960,0 0,539.999998965 -960,0 L 0,6.1035e-5 Z" /></g></g><path
       id="path22"
       style="fill:#e7b9b1;fill-opacity:1;fill-rule:evenodd;stroke:none"
       d="m 59.28,22.44 393.48,0 0,466.68 -393.48,0 0,-466.68 z" /><path
       id="path24"
       style="fill:none;stroke:#000000;stroke-width:0.95999998;stroke-linecap:butt;stroke-linejoin:miter;stroke-miterlimit:10;stroke-dasharray:none;stroke-opacity:1"
       d="m 59.28,22.44 393.48,0 0,466.68 -393.48,0 0,-466.68 z" /><path
       id="path26"
       style="fill:#e2f0d9;fill-opacity:1;fill-rule:evenodd;stroke:none"
       d="m 74.28,68.64 362.52,0 0,298.2 -362.52,0 0,-298.2 z" /><path
       id="path28"
       style="fill:none;stroke:#000000;stroke-width:0.95999998;stroke-linecap:butt;stroke-linejoin:miter;stroke-miterlimit:10;stroke-dasharray:none;stroke-opacity:1"
       d="m 74.28,68.64 362.52,0 0,298.2 -362.52,0 0,-298.2 z" /><path
       id="path30"
       style="fill:#ffffff;fill-opacity:1;fill-rule:evenodd;stroke:none"
       d="m 109.32,428.58 c 0,22.43 24.5,40.62 54.72,40.62 30.22,0 54.72,-18.19 54.72,-40.62 0,-22.43 -24.5,-40.62 -54.72,-40.62 -30.22,0 -54.72,18.19 -54.72,40.62 z" /><path
       id="path32"
       style="fill:none;stroke:#000000;stroke-width:0.95999998;stroke-linecap:butt;stroke-linejoin:miter;stroke-miterlimit:10;stroke-dasharray:none;stroke-opacity:1"
       d="m 109.32,428.58 c 0,22.43 24.5,40.62 54.72,40.62 30.22,0 54.72,-18.19 54.72,-40.62 0,-22.43 -24.5,-40.62 -54.72,-40.62 -30.22,0 -54.72,18.19 -54.72,40.62 z" /><g
       id="g34"><g
         clip-path="url(#clipPath38)"
         id="g36"><text
           id="text42"
           style="font-variant:normal;font-weight:normal;font-size:24px;font-family:Helvetica;-inkscape-font-specification:Helvetica;writing-mode:lr-tb;fill:#000000;fill-opacity:1;fill-rule:nonzero;stroke:none"
           transform="matrix(1,0,0,-1,132.65,438.74)"><tspan
             id="tspan44"
             y="0"
             x="0 16.007999 22.68 30.672001 36 49.344002">String</tspan></text>
</g></g><g
       id="g46"><g
         clip-path="url(#clipPath50)"
         id="g48"><text
           id="text54"
           style="font-variant:normal;font-weight:normal;font-size:32.06399918px;font-family:Helvetica;-inkscape-font-specification:Helvetica;writing-mode:lr-tb;fill:#000000;fill-opacity:1;fill-rule:nonzero;stroke:none"
           transform="matrix(1,0,0,-1,135.53,402.26)"><tspan
             id="tspan56"
             y="0"
             x="0 10.677312 28.504896 46.204224">“aa”</tspan></text>
</g></g><path
       id="path58"
       style="fill:#ffffff;fill-opacity:1;fill-rule:evenodd;stroke:none"
       d="m 130.44,289.38 c 0,25.28 24.88,45.78 55.56,45.78 30.68,0 55.56,-20.5 55.56,-45.78 0,-25.28 -24.88,-45.78 -55.56,-45.78 -30.68,0 -55.56,20.5 -55.56,45.78 z" /><path
       id="path60"
       style="fill:none;stroke:#000000;stroke-width:0.95999998;stroke-linecap:butt;stroke-linejoin:miter;stroke-miterlimit:10;stroke-dasharray:none;stroke-opacity:1"
       d="m 130.44,289.38 c 0,25.28 24.88,45.78 55.56,45.78 30.68,0 55.56,-20.5 55.56,-45.78 0,-25.28 -24.88,-45.78 -55.56,-45.78 -30.68,0 -55.56,20.5 -55.56,45.78 z" /><g
       id="g62"><g
         clip-path="url(#clipPath66)"
         id="g64"><text
           id="text70"
           style="font-variant:normal;font-weight:normal;font-size:24.02400017px;font-family:Helvetica;-inkscape-font-specification:Helvetica;writing-mode:lr-tb;fill:#000000;fill-opacity:1;fill-rule:nonzero;stroke:none"
           transform="matrix(1,0,0,-1,154.61,299.5)"><tspan
             id="tspan72"
             y="0"
             x="0 16.024008 22.702681 30.702671 36.035999 49.321274">String</tspan></text>
</g></g><g
       id="g74"><g
         clip-path="url(#clipPath78)"
         id="g76"><text
           id="text82"
           style="font-variant:normal;font-weight:normal;font-size:32.04000092px;font-family:Helvetica;-inkscape-font-specification:Helvetica;writing-mode:lr-tb;fill:#000000;fill-opacity:1;fill-rule:nonzero;stroke:none"
           transform="matrix(1,0,0,-1,166.37,262.99)"><tspan
             id="tspan84"
             y="0"
             x="0 10.66932 28.483561">“a”</tspan></text>
</g></g><path
       id="path86"
       style="fill:#ffffff;fill-opacity:1;fill-rule:evenodd;stroke:none"
       d="m 174.96,151.14 c 0,25.28 30.38,45.78 67.86,45.78 37.48,0 67.86,-20.5 67.86,-45.78 0,-25.28 -30.38,-45.78 -67.86,-45.78 -37.48,0 -67.86,20.5 -67.86,45.78 z" /><path
       id="path88"
       style="fill:none;stroke:#000000;stroke-width:0.95999998;stroke-linecap:butt;stroke-linejoin:miter;stroke-miterlimit:10;stroke-dasharray:none;stroke-opacity:1"
       d="m 174.96,151.14 c 0,25.28 30.38,45.78 67.86,45.78 37.48,0 67.86,-20.5 67.86,-45.78 0,-25.28 -30.38,-45.78 -67.86,-45.78 -37.48,0 -67.86,20.5 -67.86,45.78 z" /><g
       id="g90"><g
         clip-path="url(#clipPath94)"
         id="g92"><text
           id="text98"
           style="font-variant:normal;font-weight:normal;font-size:24px;font-family:Helvetica;-inkscape-font-specification:Helvetica;writing-mode:lr-tb;fill:#000000;fill-opacity:1;fill-rule:nonzero;stroke:none"
           transform="matrix(1,0,0,-1,211.46,161.21)"><tspan
             id="tspan100"
             y="0"
             x="0 16.007999 22.68 30.672001 36 49.344002">String</tspan></text>
</g></g><g
       id="g102"><g
         clip-path="url(#clipPath106)"
         id="g104"><text
           id="text110"
           style="font-variant:normal;font-weight:normal;font-size:32.04000092px;font-family:Helvetica;-inkscape-font-specification:Helvetica;writing-mode:lr-tb;fill:#000000;fill-opacity:1;fill-rule:nonzero;stroke:none"
           transform="matrix(1,0,0,-1,206.3,124.73)"><tspan
             id="tspan112"
             y="0"
             x="0">“</tspan></text>
</g></g><g
       id="g114"><g
         clip-path="url(#clipPath118)"
         id="g116"><text
           id="text122"
           style="font-variant:normal;font-weight:normal;font-size:32.04000092px;font-family:Helvetica;-inkscape-font-specification:Helvetica;writing-mode:lr-tb;fill:#000000;fill-opacity:1;fill-rule:nonzero;stroke:none"
           transform="matrix(1,0,0,-1,216.98,124.73)"><tspan
             id="tspan124"
             y="0"
             x="0 17.81424 33.83424">acb</tspan></text>
</g></g><g
       id="g126"><g
         clip-path="url(#clipPath130)"
         id="g128"><text
           id="text134"
           style="font-variant:normal;font-weight:normal;font-size:32.04000092px;font-family:Helvetica;-inkscape-font-specification:Helvetica;writing-mode:lr-tb;fill:#000000;fill-opacity:1;fill-rule:nonzero;stroke:none"
           transform="matrix(1,0,0,-1,268.58,124.73)"><tspan
             id="tspan136"
             y="0"
             x="0">”</tspan></text>
</g></g><path
       id="path138"
       style="fill:#ffffff;fill-opacity:1;fill-rule:evenodd;stroke:none"
       d="m 285.48,229.62 c 0,25.28 27.37,45.78 61.14,45.78 33.77,0 61.14,-20.5 61.14,-45.78 0,-25.28 -27.37,-45.78 -61.14,-45.78 -33.77,0 -61.14,20.5 -61.14,45.78 z" /><path
       id="path140"
       style="fill:none;stroke:#000000;stroke-width:0.95999998;stroke-linecap:butt;stroke-linejoin:miter;stroke-miterlimit:10;stroke-dasharray:none;stroke-opacity:1"
       d="m 285.48,229.62 c 0,25.28 27.37,45.78 61.14,45.78 33.77,0 61.14,-20.5 61.14,-45.78 0,-25.28 -27.37,-45.78 -61.14,-45.78 -33.77,0 -61.14,20.5 -61.14,45.78 z" /><g
       id="g142"><g
         clip-path="url(#clipPath146)"
         id="g144"><text
           id="text150"
           style="font-variant:normal;font-weight:normal;font-size:24px;font-family:Helvetica;-inkscape-font-specification:Helvetica;writing-mode:lr-tb;fill:#000000;fill-opacity:1;fill-rule:nonzero;stroke:none"
           transform="matrix(1,0,0,-1,315.34,237.38)"><tspan
             id="tspan152"
             y="0"
             x="0 16.007999 22.68 30.672001 36 49.344002">String</tspan></text>
</g></g><g
       id="g154"><g
         clip-path="url(#clipPath158)"
         id="g156"><text
           id="text162"
           style="font-variant:normal;font-weight:normal;font-size:27.95999908px;font-family:Helvetica;-inkscape-font-specification:Helvetica;writing-mode:lr-tb;fill:#000000;fill-opacity:1;fill-rule:nonzero;stroke:none"
           transform="matrix(1,0,0,-1,322.42,204.72)"><tspan
             id="tspan164"
             y="0"
             x="0 9.3106804 24.940319 38.920319">“ac”</tspan></text>
</g></g><g
       id="g166"><g
         clip-path="url(#clipPath170)"
         id="g168"><text
           id="text174"
           style="font-variant:normal;font-weight:normal;font-size:44.06399918px;font-family:Helvetica;-inkscape-font-specification:Helvetica;writing-mode:lr-tb;fill:#000000;fill-opacity:1;fill-rule:nonzero;stroke:none"
           transform="matrix(1,0,0,-1,655.3,202.3)"><tspan
             id="tspan176"
             y="0"
             x="0">{</tspan></text>
</g></g><g
       id="g178"><g
         clip-path="url(#clipPath182)"
         id="g180"><text
           id="text186"
           style="font-variant:normal;font-weight:normal;font-size:44.06399918px;font-family:Helvetica;-inkscape-font-specification:Helvetica;writing-mode:lr-tb;fill:#000000;fill-opacity:1;fill-rule:nonzero;stroke:none"
           transform="matrix(1,0,0,-1,670.06,202.3)"><tspan
             id="tspan188"
             y="0"
             x="0 24.479984 36.710175 61.190159 73.420349">a,b,c</tspan></text>
</g></g><g
       id="g190"><g
         clip-path="url(#clipPath194)"
         id="g192"><text
           id="text198"
           style="font-variant:normal;font-weight:normal;font-size:44.06399918px;font-family:Helvetica;-inkscape-font-specification:Helvetica;writing-mode:lr-tb;fill:#000000;fill-opacity:1;fill-rule:nonzero;stroke:none"
           transform="matrix(1,0,0,-1,765.58,202.3)"><tspan
             id="tspan200"
             y="0"
             x="0">}</tspan></text>
</g></g><g
       id="g202"><g
         clip-path="url(#clipPath206)"
         id="g204"><text
           id="text210"
           style="font-variant:normal;font-weight:normal;font-size:44.04000092px;font-family:Helvetica;-inkscape-font-specification:Helvetica;writing-mode:lr-tb;fill:#000000;fill-opacity:1;fill-rule:nonzero;stroke:none"
           transform="matrix(1,0,0,-1,682.68,380.9)"><tspan
             id="tspan212"
             y="0"
             x="0 14.70936 39.195599">{a}</tspan></text>
</g></g><path
       id="path214"
       style="fill:#000000;fill-opacity:1;fill-rule:nonzero;stroke:none"
       d="m 320.14,148.12 304.25,60.22 -1.17,5.89 -304.24,-60.22 1.16,-5.89 z m 302.47,53.76 15.91,12.32 -19.41,5.33 3.5,-17.65 z" /><path
       id="path216"
       style="fill:#000000;fill-opacity:1;fill-rule:nonzero;stroke:none"
       d="m 254.18,284.4 407.12,85.77 -1.24,5.87 -407.12,-85.77 1.24,-5.87 z m 405.42,79.28 15.76,12.52 -19.47,5.1 3.71,-17.62 z" /><path
       id="path218"
       style="fill:#000000;fill-opacity:1;fill-rule:nonzero;stroke:none"
       d="m 417.78,233.13 216.48,57.93 -1.55,5.8 -216.49,-57.94 1.56,-5.79 z m 215.14,51.36 15.06,13.35 -19.72,4.04 4.66,-17.39 z" /><g
       id="g220"><g
         clip-path="url(#clipPath224)"
         id="g222"><text
           id="text228"
           style="font-variant:normal;font-weight:normal;font-size:44.04000092px;font-family:Helvetica;-inkscape-font-specification:Helvetica;writing-mode:lr-tb;fill:#000000;fill-opacity:1;fill-rule:nonzero;stroke:none"
           transform="matrix(1,0,0,-1,669,290.66)"><tspan
             id="tspan230"
             y="0"
             x="0">{</tspan></text>
</g></g><g
       id="g232"><g
         clip-path="url(#clipPath236)"
         id="g234"><text
           id="text240"
           style="font-variant:normal;font-weight:normal;font-size:44.04000092px;font-family:Helvetica;-inkscape-font-specification:Helvetica;writing-mode:lr-tb;fill:#000000;fill-opacity:1;fill-rule:nonzero;stroke:none"
           transform="matrix(1,0,0,-1,683.76,290.66)"><tspan
             id="tspan242"
             y="0"
             x="0 24.48 36.716881">a,c</tspan></text>
</g></g><g
       id="g244"><g
         clip-path="url(#clipPath248)"
         id="g246"><text
           id="text252"
           style="font-variant:normal;font-weight:normal;font-size:44.04000092px;font-family:Helvetica;-inkscape-font-specification:Helvetica;writing-mode:lr-tb;fill:#000000;fill-opacity:1;fill-rule:nonzero;stroke:none"
           transform="matrix(1,0,0,-1,742.58,290.66)"><tspan
             id="tspan254"
             y="0"
             x="0">}</tspan></text>
</g></g><g
       id="g256"><g
         clip-path="url(#clipPath260)"
         id="g258"><text
           id="text264"
           style="font-variant:normal;font-weight:normal;font-size:44.04000092px;font-family:Helvetica;-inkscape-font-specification:Helvetica;writing-mode:lr-tb;fill:#000000;fill-opacity:1;fill-rule:nonzero;stroke:none"
           transform="matrix(1,0,0,-1,225.43,503.28)"><tspan
             id="tspan266"
             y="0"
             x="0">R</tspan></text>
</g></g><g
       id="g268"><g
         clip-path="url(#clipPath272)"
         id="g270"><text
           id="text276"
           style="font-variant:normal;font-weight:normal;font-size:44.06399918px;font-family:Helvetica;-inkscape-font-specification:Helvetica;writing-mode:lr-tb;fill:#000000;fill-opacity:1;fill-rule:nonzero;stroke:none"
           transform="matrix(1,0,0,-1,711.05,503.45)"><tspan
             id="tspan278"
             y="0"
             x="0">A</tspan></text>
</g></g><path
       id="path280"
       style="fill:none;stroke:#000000;stroke-width:0.95999998;stroke-linecap:butt;stroke-linejoin:miter;stroke-miterlimit:10;stroke-dasharray:none;stroke-opacity:1"
       d="m 534.36,22.56 393.48,0 0,466.8 -393.48,0 0,-466.8 z" /><path
       id="path282"
       style="fill:#ffffff;fill-opacity:1;fill-rule:evenodd;stroke:none"
       d="m 253.92,437.34 c 0,22.43 34.98,40.62 78.12,40.62 43.14,0 78.12,-18.19 78.12,-40.62 0,-22.43 -34.98,-40.62 -78.12,-40.62 -43.14,0 -78.12,18.19 -78.12,40.62 z" /><path
       id="path284"
       style="fill:none;stroke:#000000;stroke-width:0.95999998;stroke-linecap:butt;stroke-linejoin:miter;stroke-miterlimit:10;stroke-dasharray:none;stroke-opacity:1"
       d="m 253.92,437.34 c 0,22.43 34.98,40.62 78.12,40.62 43.14,0 78.12,-18.19 78.12,-40.62 0,-22.43 -34.98,-40.62 -78.12,-40.62 -43.14,0 -78.12,18.19 -78.12,40.62 z" /><g
       id="g286"><g
         clip-path="url(#clipPath290)"
         id="g288"><text
           id="text294"
           style="font-variant:normal;font-weight:normal;font-size:24px;font-family:Helvetica;-inkscape-font-specification:Helvetica;writing-mode:lr-tb;fill:#000000;fill-opacity:1;fill-rule:nonzero;stroke:none"
           transform="matrix(1,0,0,-1,300.72,447.53)"><tspan
             id="tspan296"
             y="0"
             x="0 16.007999 22.68 30.672001 36 49.344002">String</tspan></text>
</g></g><g
       id="g298"><g
         clip-path="url(#clipPath302)"
         id="g300"><text
           id="text306"
           style="font-variant:normal;font-weight:normal;font-size:32.04000092px;font-family:Helvetica;-inkscape-font-specification:Helvetica;writing-mode:lr-tb;fill:#000000;fill-opacity:1;fill-rule:nonzero;stroke:none"
           transform="matrix(1,0,0,-1,286.68,411.02)"><tspan
             id="tspan308"
             y="0"
             x="0">“</tspan></text>
</g></g><g
       id="g310"><g
         clip-path="url(#clipPath314)"
         id="g312"><text
           id="text318"
           style="font-variant:normal;font-weight:normal;font-size:32.04000092px;font-family:Helvetica;-inkscape-font-specification:Helvetica;writing-mode:lr-tb;fill:#000000;fill-opacity:1;fill-rule:nonzero;stroke:none"
           transform="matrix(1,0,0,-1,297.36,411.02)"><tspan
             id="tspan320"
             y="0"
             x="0 17.76004 35.520081 53.280121">abbc</tspan></text>
</g></g><g
       id="g322"><g
         clip-path="url(#clipPath326)"
         id="g324"><text
           id="text330"
           style="font-variant:normal;font-weight:normal;font-size:32.04000092px;font-family:Helvetica;-inkscape-font-specification:Helvetica;writing-mode:lr-tb;fill:#000000;fill-opacity:1;fill-rule:nonzero;stroke:none"
           transform="matrix(1,0,0,-1,366.72,411.02)"><tspan
             id="tspan332"
             y="0"
             x="0">”</tspan></text>
</g></g></g></svg>