<?xml version="1.0" encoding="UTF-8" standalone="no"?>
<svg
   xmlns:dc="http://purl.org/dc/elements/1.1/"
   xmlns:cc="http://creativecommons.org/ns#"
   xmlns:rdf="http://www.w3.org/1999/02/22-rdf-syntax-ns#"
   xmlns:svg="http://www.w3.org/2000/svg"
   xmlns="http://www.w3.org/2000/svg"
   viewBox="0 0 1200 675"
   height="675"
   width="1200"
   xml:space="preserve"
   version="1.1"
   id="svg2"><metadata
     id="metadata8"><rdf:RDF><cc:Work
         rdf:about=""><dc:format>image/svg+xml</dc:format><dc:type
           rdf:resource="http://purl.org/dc/dcmitype/StillImage" /></cc:Work></rdf:RDF></metadata><defs
     id="defs6"><clipPath
       id="clipPath16"
       clipPathUnits="userSpaceOnUse"><path
         style="clip-rule:evenodd"
         id="path18"
         d="m 0,1.2207e-4 960,0 0,539.99999793 -960,0 L 0,1.2207e-4 Z" /></clipPath><clipPath
       id="clipPath26"
       clipPathUnits="userSpaceOnUse"><path
         style="clip-rule:evenodd"
         id="path28"
         d="M 1.4305e-5,0 960.00001,0 l 0,540 -959.999995695,0 0,-540 z" /></clipPath><clipPath
       id="clipPath38"
       clipPathUnits="userSpaceOnUse"><path
         style="clip-rule:evenodd"
         id="path40"
         d="M 1.4305e-5,0 960.00001,0 l 0,540 -959.999995695,0 0,-540 z" /></clipPath><clipPath
       id="clipPath52"
       clipPathUnits="userSpaceOnUse"><path
         style="clip-rule:evenodd"
         id="path54"
         d="M 1.4305e-5,0 960.00001,0 l 0,540 -959.999995695,0 0,-540 z" /></clipPath><clipPath
       id="clipPath64"
       clipPathUnits="userSpaceOnUse"><path
         style="clip-rule:evenodd"
         id="path66"
         d="M 1.4305e-5,0 960.00001,0 l 0,540 -959.999995695,0 0,-540 z" /></clipPath><clipPath
       id="clipPath78"
       clipPathUnits="userSpaceOnUse"><path
         style="clip-rule:evenodd"
         id="path80"
         d="M 1.4305e-5,0 960.00001,0 l 0,540 -959.999995695,0 0,-540 z" /></clipPath><clipPath
       id="clipPath90"
       clipPathUnits="userSpaceOnUse"><path
         style="clip-rule:evenodd"
         id="path92"
         d="M 1.4305e-5,0 960.00001,0 l 0,540 -959.999995695,0 0,-540 z" /></clipPath><clipPath
       id="clipPath102"
       clipPathUnits="userSpaceOnUse"><path
         style="clip-rule:evenodd"
         id="path104"
         d="M 1.4305e-5,0 960.00001,0 l 0,540 -959.999995695,0 0,-540 z" /></clipPath><clipPath
       id="clipPath114"
       clipPathUnits="userSpaceOnUse"><path
         style="clip-rule:evenodd"
         id="path116"
         d="M 1.4305e-5,0 960.00001,0 l 0,540 -959.999995695,0 0,-540 z" /></clipPath><clipPath
       id="clipPath128"
       clipPathUnits="userSpaceOnUse"><path
         style="clip-rule:evenodd"
         id="path130"
         d="M 1.4305e-5,0 960.00001,0 l 0,540 -959.999995695,0 0,-540 z" /></clipPath><clipPath
       id="clipPath140"
       clipPathUnits="userSpaceOnUse"><path
         style="clip-rule:evenodd"
         id="path142"
         d="M 1.4305e-5,0 960.00001,0 l 0,540 -959.999995695,0 0,-540 z" /></clipPath><clipPath
       id="clipPath152"
       clipPathUnits="userSpaceOnUse"><path
         style="clip-rule:evenodd"
         id="path154"
         d="M 1.4305e-5,0 960.00001,0 l 0,540 -959.999995695,0 0,-540 z" /></clipPath><clipPath
       id="clipPath164"
       clipPathUnits="userSpaceOnUse"><path
         style="clip-rule:evenodd"
         id="path166"
         d="M 1.4305e-5,0 960.00001,0 l 0,540 -959.999995695,0 0,-540 z" /></clipPath><clipPath
       id="clipPath178"
       clipPathUnits="userSpaceOnUse"><path
         style="clip-rule:evenodd"
         id="path180"
         d="M 1.4305e-5,0 960.00001,0 l 0,540 -959.999995695,0 0,-540 z" /></clipPath><clipPath
       id="clipPath190"
       clipPathUnits="userSpaceOnUse"><path
         style="clip-rule:evenodd"
         id="path192"
         d="M 1.4305e-5,0 960.00001,0 l 0,540 -959.999995695,0 0,-540 z" /></clipPath><clipPath
       id="clipPath202"
       clipPathUnits="userSpaceOnUse"><path
         style="clip-rule:evenodd"
         id="path204"
         d="M 1.4305e-5,0 960.00001,0 l 0,540 -959.999995695,0 0,-540 z" /></clipPath><clipPath
       id="clipPath214"
       clipPathUnits="userSpaceOnUse"><path
         style="clip-rule:evenodd"
         id="path216"
         d="M 1.4305e-5,0 960.00001,0 l 0,540 -959.999995695,0 0,-540 z" /></clipPath><clipPath
       id="clipPath226"
       clipPathUnits="userSpaceOnUse"><path
         style="clip-rule:evenodd"
         id="path228"
         d="M 1.4305e-5,0 960.00001,0 l 0,540 -959.999995695,0 0,-540 z" /></clipPath><clipPath
       id="clipPath238"
       clipPathUnits="userSpaceOnUse"><path
         style="clip-rule:evenodd"
         id="path240"
         d="M 1.4305e-5,0 960.00001,0 l 0,540 -959.999995695,0 0,-540 z" /></clipPath></defs><g
     transform="matrix(1.25,0,0,-1.25,0,675)"
     id="g10"><g
       id="g12"><g
         clip-path="url(#clipPath16)"
         id="g14"><path
           id="path20"
           style="fill:#ffffff;fill-opacity:1;fill-rule:evenodd;stroke:none"
           d="m 0,6.1035e-5 960,0 0,539.999998965 -960,0 L 0,6.1035e-5 Z" /></g></g><g
       id="g22"><g
         clip-path="url(#clipPath26)"
         id="g24"><text
           id="text30"
           style="font-variant:normal;font-weight:normal;font-size:44.04000092px;font-family:Helvetica;-inkscape-font-specification:Helvetica;writing-mode:lr-tb;fill:#000000;fill-opacity:1;fill-rule:nonzero;stroke:none"
           transform="matrix(1,0,0,-1,225.43,503.28)"><tspan
             id="tspan32"
             y="0"
             x="0">R</tspan></text>
</g></g><g
       id="g34"><g
         clip-path="url(#clipPath38)"
         id="g36"><text
           id="text42"
           style="font-variant:normal;font-weight:normal;font-size:44.06399918px;font-family:Helvetica;-inkscape-font-specification:Helvetica;writing-mode:lr-tb;fill:#000000;fill-opacity:1;fill-rule:nonzero;stroke:none"
           transform="matrix(1,0,0,-1,711.05,503.45)"><tspan
             id="tspan44"
             y="0"
             x="0">A</tspan></text>
</g></g><path
       id="path46"
       style="fill:none;stroke:#000000;stroke-width:0.95999998;stroke-linecap:butt;stroke-linejoin:miter;stroke-miterlimit:10;stroke-dasharray:none;stroke-opacity:1"
       d="m 218.16,409.14 c 0,25.28 25.82,45.78 57.66,45.78 31.84,0 57.66,-20.5 57.66,-45.78 0,-25.28 -25.82,-45.78 -57.66,-45.78 -31.84,0 -57.66,20.5 -57.66,45.78 z" /><g
       id="g48"><g
         clip-path="url(#clipPath52)"
         id="g50"><text
           id="text56"
           style="font-variant:normal;font-weight:normal;font-size:24px;font-family:Helvetica;-inkscape-font-specification:Helvetica;writing-mode:lr-tb;fill:#000000;fill-opacity:1;fill-rule:nonzero;stroke:none"
           transform="matrix(1,0,0,-1,244.54,419.33)"><tspan
             id="tspan58"
             y="0"
             x="0 16.007999 22.68 30.672001 36 49.344002">String</tspan></text>
</g></g><g
       id="g60"><g
         clip-path="url(#clipPath64)"
         id="g62"><text
           id="text68"
           style="font-variant:normal;font-weight:normal;font-size:32.04000092px;font-family:Helvetica;-inkscape-font-specification:Helvetica;writing-mode:lr-tb;fill:#000000;fill-opacity:1;fill-rule:nonzero;stroke:none"
           transform="matrix(1,0,0,-1,260.74,382.85)"><tspan
             id="tspan70"
             y="0"
             x="0 10.66932 19.44828">“ ”</tspan></text>
</g></g><path
       id="path72"
       style="fill:none;stroke:#000000;stroke-width:0.95999998;stroke-linecap:butt;stroke-linejoin:miter;stroke-miterlimit:10;stroke-dasharray:none;stroke-opacity:1"
       d="m 180.84,284.88 c 0,25.32 31.05,45.84 69.36,45.84 38.31,0 69.36,-20.52 69.36,-45.84 0,-25.32 -31.05,-45.84 -69.36,-45.84 -38.31,0 -69.36,20.52 -69.36,45.84 z" /><g
       id="g74"><g
         clip-path="url(#clipPath78)"
         id="g76"><text
           id="text82"
           style="font-variant:normal;font-weight:normal;font-size:24px;font-family:Helvetica;-inkscape-font-specification:Helvetica;writing-mode:lr-tb;fill:#000000;fill-opacity:1;fill-rule:nonzero;stroke:none"
           transform="matrix(1,0,0,-1,218.93,295.03)"><tspan
             id="tspan84"
             y="0"
             x="0 16.007999 22.68 30.672001 36 49.344002">String</tspan></text>
</g></g><g
       id="g86"><g
         clip-path="url(#clipPath90)"
         id="g88"><text
           id="text94"
           style="font-variant:normal;font-weight:normal;font-size:32.04000092px;font-family:Helvetica;-inkscape-font-specification:Helvetica;writing-mode:lr-tb;fill:#000000;fill-opacity:1;fill-rule:nonzero;stroke:none"
           transform="matrix(1,0,0,-1,213.77,258.55)"><tspan
             id="tspan96"
             y="0"
             x="0">“</tspan></text>
</g></g><g
       id="g98"><g
         clip-path="url(#clipPath102)"
         id="g100"><text
           id="text106"
           style="font-variant:normal;font-weight:normal;font-size:32.04000092px;font-family:Helvetica;-inkscape-font-specification:Helvetica;writing-mode:lr-tb;fill:#000000;fill-opacity:1;fill-rule:nonzero;stroke:none"
           transform="matrix(1,0,0,-1,224.45,258.55)"><tspan
             id="tspan108"
             y="0"
             x="0 17.76004 35.520081">abc</tspan></text>
</g></g><g
       id="g110"><g
         clip-path="url(#clipPath114)"
         id="g112"><text
           id="text118"
           style="font-variant:normal;font-weight:normal;font-size:32.04000092px;font-family:Helvetica;-inkscape-font-specification:Helvetica;writing-mode:lr-tb;fill:#000000;fill-opacity:1;fill-rule:nonzero;stroke:none"
           transform="matrix(1,0,0,-1,276.05,258.55)"><tspan
             id="tspan120"
             y="0"
             x="0">”</tspan></text>
</g></g><path
       id="path122"
       style="fill:none;stroke:#000000;stroke-width:0.95999998;stroke-linecap:butt;stroke-linejoin:miter;stroke-miterlimit:10;stroke-dasharray:none;stroke-opacity:1"
       d="m 116.88,96.3 c 0,25.28 35.59,45.78 79.5,45.78 43.91,0 79.5,-20.5 79.5,-45.78 0,-25.284 -35.59,-45.78 -79.5,-45.78 -43.91,0 -79.5,20.496 -79.5,45.78 z" /><g
       id="g124"><g
         clip-path="url(#clipPath128)"
         id="g126"><text
           id="text132"
           style="font-variant:normal;font-weight:normal;font-size:24px;font-family:Helvetica;-inkscape-font-specification:Helvetica;writing-mode:lr-tb;fill:#000000;fill-opacity:1;fill-rule:nonzero;stroke:none"
           transform="matrix(1,0,0,-1,165,106.42)"><tspan
             id="tspan134"
             y="0"
             x="0 16.007999 22.68 30.672001 36 49.344002">String</tspan></text>
</g></g><g
       id="g136"><g
         clip-path="url(#clipPath140)"
         id="g138"><text
           id="text144"
           style="font-variant:normal;font-weight:normal;font-size:32.04000092px;font-family:Helvetica;-inkscape-font-specification:Helvetica;writing-mode:lr-tb;fill:#000000;fill-opacity:1;fill-rule:nonzero;stroke:none"
           transform="matrix(1,0,0,-1,150.96,69.936)"><tspan
             id="tspan146"
             y="0"
             x="0">“</tspan></text>
</g></g><g
       id="g148"><g
         clip-path="url(#clipPath152)"
         id="g150"><text
           id="text156"
           style="font-variant:normal;font-weight:normal;font-size:32.04000092px;font-family:Helvetica;-inkscape-font-specification:Helvetica;writing-mode:lr-tb;fill:#000000;fill-opacity:1;fill-rule:nonzero;stroke:none"
           transform="matrix(1,0,0,-1,161.64,69.936)"><tspan
             id="tspan158"
             y="0"
             x="0 17.76004 35.520081 53.280121">abbc</tspan></text>
</g></g><g
       id="g160"><g
         clip-path="url(#clipPath164)"
         id="g162"><text
           id="text168"
           style="font-variant:normal;font-weight:normal;font-size:32.04000092px;font-family:Helvetica;-inkscape-font-specification:Helvetica;writing-mode:lr-tb;fill:#000000;fill-opacity:1;fill-rule:nonzero;stroke:none"
           transform="matrix(1,0,0,-1,231.02,69.936)"><tspan
             id="tspan170"
             y="0"
             x="0">”</tspan></text>
</g></g><path
       id="path172"
       style="fill:none;stroke:#000000;stroke-width:0.95999998;stroke-linecap:butt;stroke-linejoin:miter;stroke-miterlimit:10;stroke-dasharray:none;stroke-opacity:1"
       d="m 287.88,184.38 c 0,25.28 31.46,45.78 70.26,45.78 38.8,0 70.26,-20.5 70.26,-45.78 0,-25.28 -31.46,-45.78 -70.26,-45.78 -38.8,0 -70.26,20.5 -70.26,45.78 z" /><g
       id="g174"><g
         clip-path="url(#clipPath178)"
         id="g176"><text
           id="text182"
           style="font-variant:normal;font-weight:normal;font-size:24px;font-family:Helvetica;-inkscape-font-specification:Helvetica;writing-mode:lr-tb;fill:#000000;fill-opacity:1;fill-rule:nonzero;stroke:none"
           transform="matrix(1,0,0,-1,326.83,192.12)"><tspan
             id="tspan184"
             y="0"
             x="0 16.007999 22.68 30.672001 36 49.344002">String</tspan></text>
</g></g><g
       id="g186"><g
         clip-path="url(#clipPath190)"
         id="g188"><text
           id="text194"
           style="font-variant:normal;font-weight:normal;font-size:27.95999908px;font-family:Helvetica;-inkscape-font-specification:Helvetica;writing-mode:lr-tb;fill:#000000;fill-opacity:1;fill-rule:nonzero;stroke:none"
           transform="matrix(1,0,0,-1,326.23,159.48)"><tspan
             id="tspan196"
             y="0"
             x="0 9.3106804 24.940319 40.48608 54.549961">“bac”</tspan></text>
</g></g><g
       id="g198"><g
         clip-path="url(#clipPath202)"
         id="g200"><text
           id="text206"
           style="font-variant:normal;font-weight:normal;font-size:44.06399918px;font-family:Helvetica;-inkscape-font-specification:Helvetica;writing-mode:lr-tb;fill:#000000;fill-opacity:1;fill-rule:nonzero;stroke:none"
           transform="matrix(1,0,0,-1,655.3,202.3)"><tspan
             id="tspan208"
             y="0"
             x="0">{</tspan></text>
</g></g><g
       id="g210"><g
         clip-path="url(#clipPath214)"
         id="g212"><text
           id="text218"
           style="font-variant:normal;font-weight:normal;font-size:44.06399918px;font-family:Helvetica;-inkscape-font-specification:Helvetica;writing-mode:lr-tb;fill:#000000;fill-opacity:1;fill-rule:nonzero;stroke:none"
           transform="matrix(1,0,0,-1,670.06,202.3)"><tspan
             id="tspan220"
             y="0"
             x="0 24.479984 36.710175 61.190159 73.420349">a,b,c</tspan></text>
</g></g><g
       id="g222"><g
         clip-path="url(#clipPath226)"
         id="g224"><text
           id="text230"
           style="font-variant:normal;font-weight:normal;font-size:44.06399918px;font-family:Helvetica;-inkscape-font-specification:Helvetica;writing-mode:lr-tb;fill:#000000;fill-opacity:1;fill-rule:nonzero;stroke:none"
           transform="matrix(1,0,0,-1,765.58,202.3)"><tspan
             id="tspan232"
             y="0"
             x="0">}</tspan></text>
</g></g><g
       id="g234"><g
         clip-path="url(#clipPath238)"
         id="g236"><text
           id="text242"
           style="font-variant:normal;font-weight:normal;font-size:44.04000092px;font-family:Helvetica;-inkscape-font-specification:Helvetica;writing-mode:lr-tb;fill:#000000;fill-opacity:1;fill-rule:nonzero;stroke:none"
           transform="matrix(1,0,0,-1,682.68,380.9)"><tspan
             id="tspan244"
             y="0"
             x="0 14.70936 26.95248">{ }</tspan></text>
</g></g><path
       id="path246"
       style="fill:#000000;fill-opacity:1;fill-rule:nonzero;stroke:none"
       d="m 351.5,412.2 299.71,-13.9 -0.27,-5.99 -299.72,13.89 0.28,6 z m 297,-7.76 17.56,-9.83 -18.4,-8.15 0.84,17.98 z" /><path
       id="path248"
       style="fill:#000000;fill-opacity:1;fill-rule:nonzero;stroke:none"
       d="m 333.92,281.01 287.58,-42.44 -0.87,-5.94 -287.59,42.44 0.88,5.94 z m 285.49,-36.07 16.49,-11.53 -19.12,-6.27 2.63,17.8 z" /><path
       id="path250"
       style="fill:#000000;fill-opacity:1;fill-rule:nonzero;stroke:none"
       d="m 433.03,195.94 188.05,12.03 -0.38,5.99 -188.05,-12.03 0.38,-5.99 z m 185.44,5.85 17.39,10.13 -18.54,7.83 1.15,-17.96 z" /><path
       id="path252"
       style="fill:none;stroke:#000000;stroke-width:0.95999998;stroke-linecap:butt;stroke-linejoin:miter;stroke-miterlimit:10;stroke-dasharray:none;stroke-opacity:1"
       d="m 59.28,22.44 393.48,0 0,466.68 -393.48,0 0,-466.68 z" /><path
       id="path254"
       style="fill:none;stroke:#000000;stroke-width:0.95999998;stroke-linecap:butt;stroke-linejoin:miter;stroke-miterlimit:10;stroke-dasharray:none;stroke-opacity:1"
       d="m 534.36,22.56 393.48,0 0,466.8 -393.48,0 0,-466.8 z" /></g></svg>